<?xml version="1.0" standalone="no"?>
<!DOCTYPE svg PUBLIC "-//W3C//DTD SVG 20010904//EN"
 "http://www.w3.org/TR/2001/REC-SVG-20010904/DTD/svg10.dtd">
<svg version="1.0" xmlns="http://www.w3.org/2000/svg"
 width="590.000000pt" height="358.000000pt" viewBox="0 0 590.000000 358.000000"
 preserveAspectRatio="xMidYMid meet">

<g transform="translate(0.000000,358.000000) scale(0.100000,-0.100000)"
fill="#000000" stroke="none">
<path d="M2780 3541 c-258 -55 -488 -247 -586 -489 -79 -195 -83 -409 -13
-597 25 -67 143 -246 201 -305 37 -36 552 -584 565 -599 1 -2 37 32 79 77 l76
82 158 0 158 0 61 -161 c33 -88 61 -165 61 -170 0 -5 -237 -9 -590 -9 -353 0
-590 4 -590 9 0 5 28 82 61 170 l61 161 69 0 c38 0 69 3 69 7 0 4 -26 33 -57
65 -56 57 -58 58 -114 58 l-57 0 -105 -282 c-58 -156 -108 -291 -112 -300 -7
-17 34 -18 775 -18 741 0 782 1 775 18 -4 9 -54 144 -112 299 l-105 282 -140
3 -139 3 166 175 c237 249 306 353 351 525 25 95 26 294 1 384 -41 152 -100
260 -197 364 -201 216 -487 307 -770 248z m360 -137 c30 -9 91 -34 135 -56
110 -55 234 -180 288 -291 116 -238 100 -500 -45 -709 -26 -38 -559 -608 -568
-608 -11 0 -554 582 -574 614 -141 227 -154 467 -39 703 54 111 178 236 289
291 77 39 156 66 219 76 58 9 241 -3 295 -20z"/>
<path d="M2884 2976 c-63 -20 -101 -46 -134 -93 -62 -86 -63 -189 -1 -319 44
-93 131 -164 201 -164 70 0 157 71 201 164 62 130 61 233 -3 322 -55 78 -176
119 -264 90z m153 -160 c38 -41 42 -74 18 -152 -17 -57 -77 -134 -105 -134
-47 0 -120 132 -120 216 0 35 38 89 74 105 42 18 99 3 133 -35z"/>
<path d="M80 887 l0 -83 33 -9 32 -10 0 -160 0 -159 -32 -10 -33 -9 0 -83 0
-84 145 0 145 0 0 84 0 83 -29 6 c-18 4 -31 14 -35 29 -9 36 -7 258 3 258 4 0
44 -102 87 -227 l79 -228 86 -3 86 -3 71 218 c39 120 74 230 77 246 16 62 25
19 25 -116 0 -127 -2 -146 -18 -160 -10 -10 -26 -17 -35 -17 -15 0 -17 -12
-17 -85 l0 -85 205 0 205 0 0 85 c0 75 -2 85 -18 85 -10 0 -28 7 -40 16 -21
14 -22 22 -22 159 0 137 1 145 22 159 12 9 30 16 40 16 16 0 18 10 18 85 l0
85 -218 0 -218 0 -43 -152 c-24 -84 -47 -157 -51 -161 -4 -5 -32 64 -61 152
l-54 161 -217 0 -218 0 0 -83z"/>
<path d="M1890 885 c0 -75 2 -85 18 -85 10 0 28 -7 40 -16 21 -14 22 -22 22
-159 0 -137 -1 -145 -22 -159 -12 -9 -30 -16 -40 -16 -16 0 -18 -10 -18 -85
l0 -85 330 0 330 0 0 125 0 125 -74 0 -74 0 -7 -30 c-9 -39 -31 -50 -99 -50
l-56 0 0 70 0 70 75 0 75 0 0 40 0 40 -75 0 -75 0 0 65 0 65 56 0 c68 0 90
-11 99 -50 l7 -30 74 0 74 0 0 125 0 125 -330 0 -330 0 0 -85z"/>
<path d="M4907 936 c-13 -82 -77 -156 -134 -156 -22 0 -23 -4 -23 -80 l0 -80
34 0 34 0 3 -122 c3 -101 8 -129 24 -158 28 -46 73 -71 143 -77 154 -14 232
63 232 230 0 55 -1 58 -22 55 -20 -3 -23 -10 -26 -58 -4 -64 -14 -80 -53 -80
-39 0 -49 28 -49 131 l0 79 70 0 70 0 0 85 0 84 -67 3 -68 3 -3 88 -3 87 -78
0 -78 0 -6 -34z"/>
<path d="M3510 809 c-76 -13 -133 -43 -178 -94 -45 -51 -62 -100 -62 -177 0
-143 82 -237 234 -268 111 -23 252 6 315 63 26 24 60 92 61 120 0 15 -10 17
-77 17 -78 0 -78 0 -93 -33 -21 -45 -62 -63 -110 -48 -47 14 -60 30 -67 81
l-6 40 188 0 188 0 -7 53 c-8 57 -37 130 -64 160 -62 70 -198 106 -322 86z
m145 -149 c8 -16 15 -38 15 -50 0 -18 -6 -20 -70 -20 -64 0 -70 2 -70 20 0 12
7 34 15 50 13 26 21 30 55 30 34 0 42 -4 55 -30z"/>
<path d="M4393 810 c-23 -5 -55 -16 -71 -24 -32 -16 -72 -72 -72 -100 0 -9 -5
-16 -11 -16 -8 0 -10 19 -6 60 l5 60 -134 0 -134 0 0 -84 0 -85 28 -3 c26 -3
27 -5 30 -71 3 -73 -7 -97 -39 -97 -17 0 -19 -9 -19 -85 l0 -85 190 0 190 0 0
85 c0 84 0 85 -25 85 -32 0 -45 26 -45 88 0 58 28 102 65 102 50 0 55 -18 55
-196 l0 -164 160 0 160 0 0 85 c0 83 -1 85 -24 85 -13 0 -28 6 -34 13 -5 6
-12 62 -14 122 -2 88 -7 117 -24 145 -37 64 -137 98 -231 80z"/>
<path d="M5439 810 c-131 -22 -199 -120 -155 -224 20 -47 69 -81 156 -106 116
-34 149 -64 99 -91 -32 -17 -94 5 -121 41 -20 28 -27 30 -85 30 l-63 0 0 -90
0 -90 60 0 c47 0 60 3 60 15 0 19 1 19 52 -3 52 -21 205 -23 260 -4 82 29 126
106 108 187 -13 57 -72 107 -152 129 -35 10 -77 22 -95 27 -59 19 -50 69 13
69 25 0 45 -10 73 -35 34 -31 44 -35 95 -35 l56 0 0 90 0 90 -60 0 c-47 0 -60
-3 -60 -15 0 -18 -4 -18 -55 -1 -55 19 -131 25 -186 16z"/>
<path d="M1200 706 c0 -83 0 -84 28 -89 24 -5 40 -31 134 -214 l107 -209 -19
-31 c-21 -36 -48 -53 -81 -53 -21 0 -21 1 5 25 47 43 32 115 -30 141 -47 20
-95 9 -131 -28 -36 -38 -40 -111 -7 -155 46 -63 152 -89 248 -61 74 22 109 72
216 305 118 257 129 276 160 283 24 6 25 10 28 88 l3 82 -131 0 -130 0 0 -80
c0 -77 1 -81 26 -90 20 -8 24 -14 18 -33 -9 -30 -53 -117 -59 -117 -3 0 -19
27 -36 61 -31 62 -32 89 -4 89 12 0 15 15 15 85 l0 85 -180 0 -180 0 0 -84z"/>
<path d="M2580 710 c0 -68 3 -81 18 -86 40 -13 50 -28 114 -180 l66 -159 134
-3 133 -2 39 97 c84 209 102 243 130 243 26 0 26 0 26 85 l0 85 -125 0 -125 0
0 -85 c0 -78 2 -85 20 -85 12 0 20 -7 20 -16 0 -24 -51 -164 -60 -164 -10 0
-60 135 -60 161 0 12 7 19 20 19 18 0 20 7 20 85 l0 85 -185 0 -185 0 0 -80z"/>
</g>
</svg>
